<?xml version="1.0" encoding="UTF-8" ?>
<!DOCTYPE svg PUBLIC "-//W3C//DTD SVG 1.1//EN" "http://www.w3.org/Graphics/SVG/1.1/DTD/svg11.dtd">
<svg width="100pt" height="101pt" viewBox="0 0 100 101" version="1.1" xmlns="http://www.w3.org/2000/svg">
<path fill="#ffffff" d=" M 0.00 0.00 L 48.32 0.00 C 41.64 0.78 34.76 1.67 28.79 5.01 C 15.48 11.34 5.69 24.08 2.21 38.31 C -0.00 49.12 0.50 60.77 5.21 70.87 C 11.04 84.63 23.54 95.31 37.99 99.02 C 49.34 101.49 61.78 100.85 72.17 95.32 C 84.99 88.99 94.53 76.71 98.01 62.91 C 100.47 51.25 99.88 38.52 94.35 27.79 C 88.60 15.97 77.96 6.57 65.47 2.41 C 61.30 1.15 56.96 0.61 52.66 0.00 L 100.00 0.00 L 100.00 101.00 L 0.00 101.00 L 0.00 0.00 Z" />
<path fill="#444861" d=" M 48.32 0.00 L 52.66 0.00 C 56.96 0.61 61.30 1.15 65.47 2.41 C 77.96 6.57 88.60 15.97 94.35 27.79 C 99.88 38.52 100.47 51.25 98.01 62.91 C 94.53 76.71 84.99 88.99 72.17 95.32 C 61.78 100.85 49.34 101.49 37.99 99.02 C 23.54 95.31 11.04 84.63 5.21 70.87 C 0.50 60.77 -0.00 49.12 2.21 38.31 C 5.69 24.08 15.48 11.34 28.79 5.01 C 34.76 1.67 41.64 0.78 48.32 0.00 Z" />
<path fill="#ffffff" d=" M 46.33 2.35 C 66.54 0.30 86.43 13.61 93.84 32.22 C 95.04 36.09 96.47 39.91 97.11 43.93 C 99.23 59.97 92.56 76.80 80.14 87.15 C 73.43 93.19 64.79 96.52 56.02 98.16 C 41.02 100.06 25.41 93.83 15.48 82.49 C 7.96 74.48 4.04 63.73 2.92 52.93 C 2.29 46.19 4.24 39.62 6.17 33.24 C 12.45 16.60 28.48 3.78 46.33 2.35 Z" />
<path fill="#444861" d=" M 34.46 19.59 C 37.94 17.35 42.75 22.50 39.85 25.62 C 38.32 27.84 35.49 27.41 33.42 26.33 C 32.29 24.10 32.12 21.10 34.46 19.59 Z" />
<path fill="#444861" d=" M 48.78 20.56 C 50.44 19.03 53.83 18.94 54.13 21.73 C 53.98 30.58 53.91 39.42 53.85 48.27 C 59.18 43.81 63.61 38.36 68.78 33.73 C 70.70 31.60 74.50 34.09 73.41 36.67 C 69.84 40.24 66.22 43.78 62.42 47.11 C 66.23 52.14 70.07 57.15 73.82 62.22 C 74.87 63.35 74.56 64.93 74.69 66.33 C 73.36 66.74 71.44 68.26 70.32 66.63 C 66.07 61.50 62.60 55.78 58.51 50.53 C 57.09 52.03 55.51 53.39 54.24 55.03 C 53.80 59.12 54.87 63.39 53.27 67.32 C 51.54 67.36 48.67 67.59 48.85 65.05 C 48.74 50.22 48.89 35.39 48.78 20.56 Z" />
<path fill="#444861" d=" M 33.69 34.57 C 34.99 32.67 37.41 32.63 39.24 33.77 C 39.26 45.86 39.26 57.96 39.25 70.05 C 39.21 73.37 38.58 77.54 35.23 79.13 C 31.47 81.16 27.00 80.44 23.13 79.11 C 23.12 77.40 22.80 75.17 24.83 74.45 C 27.69 75.06 30.67 76.02 33.28 74.11 C 33.69 71.43 33.87 68.72 33.80 66.01 C 33.70 55.53 33.92 45.05 33.69 34.57 Z" />
</svg>
